<?xml version="1.0" encoding="utf-8"?>
<!-- Generator: Adobe Illustrator 24.0.0, SVG Export Plug-In . SVG Version: 6.00 Build 0)  -->
<svg version="1.1" id="Layer_1" xmlns="http://www.w3.org/2000/svg" xmlns:xlink="http://www.w3.org/1999/xlink" x="0px" y="0px"
	 viewBox="0 0 228.4 42.9" style="enable-background:new 0 0 228.4 42.9;" xml:space="preserve">
<style type="text/css">
	.st0{fill:#080809;}
	.st1{fill-rule:evenodd;clip-rule:evenodd;fill:#080809;}
</style>
<g>
	<path class="st0" d="M92.1,35.2h10c5.7,0,9.3-2.9,9.3-8c0-3.1-1.5-5.4-4.1-6.5c2.2-1.2,3.3-3.2,3.3-5.7c0-4.8-3.5-7.6-9.1-7.6h-9.4
		V35.2z M102,22.9c3.8,0,5.4,1.6,5.4,4.3c0,2.6-1.9,4.3-5.2,4.3h-5.9v-8.5H102z M101.5,11.3c3.3,0,5,1.4,5,3.8c0,2.3-1.5,4-4.8,4
		h-5.4v-7.8H101.5z M114.6,35.2h4.1v-19h-4.1V35.2z M113.9,10.6c0,1.6,1.1,2.7,2.7,2.7c1.6,0,2.7-1.1,2.7-2.7c0-1.6-1.1-2.7-2.7-2.7
		S113.9,9,113.9,10.6z M122.4,35.2h4.1v-9.4c0-4,1.4-5.7,4.9-5.7h2.5v-3.9H132c-2.7,0-4.5,1.1-5.5,3v-3h-4.1V35.2z M144.8,35.6
		c2.5,0,4.9-1.1,6.3-3v2.6h4V7.5h-4v11.2c-1.4-1.7-3.8-2.9-6.3-2.9c-5,0-9.5,3.8-9.5,9.9C135.3,31.8,140,35.6,144.8,35.6z
		 M145.4,31.9c-3.4,0-6-2.7-6-6.2c0-3.5,2.6-6.2,6-6.2c3.5,0,6,2.8,6,6.2C151.4,29.1,148.8,31.9,145.4,31.9z M159.8,7.5h10.6
		c1.2,0,2.3,0.2,3.3,0.5c1,0.4,1.8,0.8,2.5,1.5c0.7,0.6,1.3,1.4,1.7,2.3c0.4,0.9,0.6,1.8,0.6,2.9c0,1.4-0.3,2.6-1,3.7
		c-0.7,1.1-1.6,1.9-2.9,2.4c1.4,0.5,2.6,1.4,3.4,2.6c0.8,1.2,1.2,2.6,1.2,4.2c0,1.1-0.2,2.2-0.6,3.1c-0.4,0.9-1,1.7-1.7,2.4
		c-0.7,0.7-1.6,1.2-2.6,1.6c-1,0.4-2.1,0.5-3.3,0.5h-11.1V7.5z M162,21.9v11.3h8.9c0.9,0,1.7-0.1,2.4-0.4c0.8-0.3,1.4-0.7,1.9-1.2
		c0.5-0.5,0.9-1.1,1.3-1.8c0.3-0.7,0.5-1.4,0.5-2.2c0-1.6-0.5-3-1.6-4.1c-1.1-1.1-2.6-1.6-4.5-1.6H162z M162,9.5v10.4h8.7
		c0.9,0,1.6-0.1,2.3-0.4c0.7-0.3,1.3-0.6,1.7-1.1c0.5-0.5,0.8-1,1.1-1.7c0.3-0.7,0.4-1.4,0.4-2.1c0-0.7-0.2-1.4-0.5-2.1
		c-0.3-0.6-0.7-1.2-1.2-1.6s-1.2-0.8-1.9-1.1c-0.7-0.3-1.5-0.4-2.4-0.4H162z M183.7,16.2h2.2v19h-2.2V16.2z M182.9,10.3
		c0-0.5,0.2-1,0.6-1.3c0.4-0.4,0.8-0.6,1.3-0.6c0.6,0,1,0.2,1.4,0.6c0.4,0.4,0.6,0.8,0.6,1.3s-0.2,1-0.6,1.4
		c-0.4,0.4-0.8,0.6-1.4,0.6c-0.6,0-1-0.2-1.4-0.6C183.1,11.3,182.9,10.8,182.9,10.3z M197.8,25.5l-4.3,4.4v5.3h-2.1V7.5h2.1v20
		l10.8-11.2h2.8l-7.8,8l8.1,11h-2.5L197.8,25.5z M218.8,35.6c-1.5,0-2.9-0.2-4.2-0.7c-1.2-0.5-2.3-1.2-3.1-2.1
		c-0.9-0.9-1.5-1.9-2-3.1c-0.5-1.2-0.7-2.5-0.7-3.9c0-1.4,0.2-2.7,0.7-3.9c0.5-1.2,1.2-2.3,2.1-3.2c0.9-0.9,1.9-1.6,3.1-2.1
		c1.2-0.5,2.5-0.8,4-0.8c1.4,0,2.7,0.2,3.8,0.7c1.2,0.5,2.2,1.1,3.1,2c0.9,0.8,1.6,1.8,2.1,3c0.5,1.2,0.8,2.5,0.8,3.9v1h-17.5
		c0.1,1,0.3,2,0.7,2.9c0.4,0.9,1,1.7,1.7,2.3c0.7,0.6,1.5,1.1,2.4,1.5c0.9,0.4,2,0.5,3.1,0.5c1.8,0,3.3-0.4,4.4-1.3
		c1.2-0.9,2.1-2,2.7-3.5l1.9,0.9c-0.9,1.8-2,3.2-3.5,4.3C222.9,35.1,221,35.6,218.8,35.6z M218.6,17.8c-1,0-1.9,0.2-2.8,0.5
		c-0.9,0.3-1.6,0.8-2.3,1.4c-0.7,0.6-1.3,1.3-1.7,2.1c-0.4,0.8-0.7,1.7-0.9,2.7h15.2c-0.1-1-0.4-1.9-0.8-2.7
		c-0.4-0.8-0.9-1.5-1.6-2.1c-0.6-0.6-1.4-1.1-2.2-1.4C220.7,18,219.7,17.8,218.6,17.8z"/>
	<path class="st1" d="M55,28.2c-0.3,1-0.8,1.9-1.5,2.6c-1,1-2.5,1.7-4,1.7c-1.6,0-3-0.6-4-1.7c-1-1-1.7-2.5-1.7-4s0.6-3,1.7-4
		c1-1,2.5-1.7,4-1.7h22.9h1.1c1.9-0.2,3.5-1.8,3.6-3.7H49.5c-2.6,0-4.9,1.1-6.6,2.8c-1.7,1.7-2.8,4.1-2.8,6.6c0,2.6,1.1,4.9,2.8,6.6
		c1.7,1.7,4.1,2.8,6.6,2.8c2.6,0,4.9-1.1,6.6-2.8c1.4-1.4,2.3-3.2,2.7-5.2H55z M45.4,26.5h18h1.1c1.9-0.2,3.5-1.8,3.6-3.7H48.7
		c-0.8,0.2-1.5,0.5-2.1,1.1C45.9,24.6,45.5,25.5,45.4,26.5z M22,28.2c0.3,1,0.8,1.9,1.5,2.6c1,1,2.5,1.7,4,1.7c1.6,0,3-0.6,4-1.7
		c1-1,1.7-2.5,1.7-4s-0.6-3-1.7-4c-1-1-2.5-1.7-4-1.7H4.7H3.6c-1.9-0.2-3.5-1.8-3.6-3.7h27.6c2.6,0,4.9,1.1,6.6,2.8
		c1.7,1.7,2.8,4.1,2.8,6.6c0,2.6-1.1,4.9-2.8,6.6c-1.7,1.7-4.1,2.8-6.6,2.8c-2.6,0-4.9-1.1-6.6-2.8c-1.4-1.4-2.3-3.2-2.7-5.2H22z
		 M31.6,26.5h-18h-1.1c-1.9-0.2-3.5-1.8-3.6-3.7h19.3c0.8,0.2,1.5,0.5,2.1,1.1C31.1,24.6,31.5,25.5,31.6,26.5z M38.5,4.1
		c4.8,0,9.1,1.9,12.2,5.1c1.7,1.7,3,3.7,3.9,6h-3.1c-0.7-1.5-1.7-2.8-2.8-3.9C46.1,8.6,42.5,7,38.5,7c-4,0-7.6,1.6-10.2,4.2
		c-1.1,1.1-2.1,2.5-2.8,3.9h-3.1c0.9-2.2,2.2-4.3,3.9-6C29.4,6.1,33.7,4.1,38.5,4.1z M38.5,0c5.9,0,11.3,2.4,15.2,6.3
		c2.5,2.4,4.3,5.5,5.3,8.9h-1.9c-1-2.9-2.6-5.5-4.7-7.6C48.8,4,43.9,1.8,38.5,1.8c-5.4,0-10.3,2.2-13.9,5.7
		c-2.1,2.1-3.7,4.7-4.7,7.6H18c1-3.4,2.9-6.4,5.3-8.9C27.2,2.4,32.6,0,38.5,0z M52,38.1c-3.7,3-8.4,4.8-13.5,4.8
		c-5.1,0-9.8-1.8-13.5-4.8c0.8,0.2,1.7,0.3,2.5,0.3c0.3,0,0.7,0,1,0c2.9,1.7,6.3,2.7,10,2.7c3.6,0,7.1-1,10-2.7c0.3,0,0.6,0,1,0
		C50.3,38.4,51.2,38.3,52,38.1z"/>
</g>
</svg>
